<svg width="512" height="512" viewBox="0 0 512 512" fill="none" xmlns="http://www.w3.org/2000/svg">
  <rect width="512" height="512" rx="110" fill="#1E3F33"/>
  <path d="M256 128C220.7 128 192 156.7 192 192C192 227.3 220.7 256 256 256C291.3 256 320 227.3 320 192C320 156.7 291.3 128 256 128ZM256 234.7C232.5 234.7 213.3 215.5 213.3 192C213.3 168.5 232.5 149.3 256 149.3C279.5 149.3 298.7 168.5 298.7 192C298.7 215.5 279.5 234.7 256 234.7Z" fill="white"/>
  <path d="M256 261.3C208.7 261.3 170.7 299.3 170.7 346.7C170.7 367.3 187.4 384 208 384H304C324.6 384 341.3 367.3 341.3 346.7C341.3 299.3 303.3 261.3 256 261.3ZM304 362.7H208C198.9 362.7 192 355.8 192 346.7C192 311.1 220.4 282.7 256 282.7C291.6 282.7 320 311.1 320 346.7C320 355.8 313.1 362.7 304 362.7Z" fill="#DDA15E"/>
  <ellipse cx="256" cy="181.3" rx="26.7" ry="37.3" fill="#DDA15E"/>
</svg>