<svg width="192" height="192" viewBox="0 0 192 192" fill="none" xmlns="http://www.w3.org/2000/svg">
  <rect width="192" height="192" rx="40" fill="#1E3F33"/>
  <path d="M96 48C82.7 48 72 58.7 72 72C72 85.3 82.7 96 96 96C109.3 96 120 85.3 120 72C120 58.7 109.3 48 96 48ZM96 88C87.2 88 80 80.8 80 72C80 63.2 87.2 56 96 56C104.8 56 112 63.2 112 72C112 80.8 104.8 88 96 88Z" fill="white"/>
  <path d="M96 98C78.3 98 64 112.3 64 130C64 137.7 70.3 144 78 144H114C121.7 144 128 137.7 128 130C128 112.3 113.7 98 96 98ZM114 136H78C74.7 136 72 133.3 72 130C72 116.7 82.7 106 96 106C109.3 106 120 116.7 120 130C120 133.3 117.3 136 114 136Z" fill="#DDA15E"/>
  <ellipse cx="96" cy="68" rx="10" ry="14" fill="#DDA15E"/>
</svg>